<mxfile host="app.diagrams.net" modified="2022-05-18T07:33:25.202Z" agent="5.0 (X11)" etag="IfU6AytYYxHR_B-YQSle" version="18.0.7" type="github">
  <diagram id="991YIVNwjoEm6JlIrCAU" name="Page-1">
    <mxGraphModel dx="1112" dy="1153" grid="1" gridSize="10" guides="1" tooltips="1" connect="1" arrows="1" fold="1" page="1" pageScale="1" pageWidth="1169" pageHeight="1654" math="0" shadow="0">
      <root>
        <mxCell id="0" />
        <mxCell id="1" parent="0" />
        <mxCell id="1_JYMFFjYfN3ZRPpOfIf-5" value="Messages" style="swimlane;fontStyle=1;align=center;verticalAlign=top;childLayout=stackLayout;horizontal=1;startSize=26;horizontalStack=0;resizeParent=1;resizeParentMax=0;resizeLast=0;collapsible=1;marginBottom=0;" vertex="1" parent="1">
          <mxGeometry x="440" y="30" width="225" height="140" as="geometry" />
        </mxCell>
        <mxCell id="1_JYMFFjYfN3ZRPpOfIf-6" value="# node: Node&#xa;# nextNode: Node&#xa;# list &lt;Node&gt; visistedNode&#xa;# timeStep: int&#xa;&#xa;&#xa;" style="text;strokeColor=none;fillColor=none;align=left;verticalAlign=top;spacingLeft=4;spacingRight=4;overflow=hidden;rotatable=0;points=[[0,0.5],[1,0.5]];portConstraint=eastwest;" vertex="1" parent="1_JYMFFjYfN3ZRPpOfIf-5">
          <mxGeometry y="26" width="225" height="64" as="geometry" />
        </mxCell>
        <mxCell id="1_JYMFFjYfN3ZRPpOfIf-7" value="" style="line;strokeWidth=1;fillColor=none;align=left;verticalAlign=middle;spacingTop=-1;spacingLeft=3;spacingRight=3;rotatable=0;labelPosition=right;points=[];portConstraint=eastwest;" vertex="1" parent="1_JYMFFjYfN3ZRPpOfIf-5">
          <mxGeometry y="90" width="225" height="8" as="geometry" />
        </mxCell>
        <mxCell id="1_JYMFFjYfN3ZRPpOfIf-8" value="+ Messages(Node)&#xa;# Move()&#xa;" style="text;strokeColor=none;fillColor=none;align=left;verticalAlign=top;spacingLeft=4;spacingRight=4;overflow=hidden;rotatable=0;points=[[0,0.5],[1,0.5]];portConstraint=eastwest;" vertex="1" parent="1_JYMFFjYfN3ZRPpOfIf-5">
          <mxGeometry y="98" width="225" height="42" as="geometry" />
        </mxCell>
        <mxCell id="1_JYMFFjYfN3ZRPpOfIf-9" value="Query" style="swimlane;fontStyle=1;align=center;verticalAlign=top;childLayout=stackLayout;horizontal=1;startSize=26;horizontalStack=0;resizeParent=1;resizeParentMax=0;resizeLast=0;collapsible=1;marginBottom=0;" vertex="1" parent="1">
          <mxGeometry x="40" y="200" width="240" height="250" as="geometry" />
        </mxCell>
        <mxCell id="1_JYMFFjYfN3ZRPpOfIf-10" value="- eventID: int&#xa;- eventInfo: Event&#xa;- startNode: Node&#xa;- timeSinceInit: int&#xa;- hasFoundPath: boolean&#xa;- stack &lt;Node&gt; visitedPos&#xa;&#xa;" style="text;strokeColor=none;fillColor=none;align=left;verticalAlign=top;spacingLeft=4;spacingRight=4;overflow=hidden;rotatable=0;points=[[0,0.5],[1,0.5]];portConstraint=eastwest;" vertex="1" parent="1_JYMFFjYfN3ZRPpOfIf-9">
          <mxGeometry y="26" width="240" height="94" as="geometry" />
        </mxCell>
        <mxCell id="1_JYMFFjYfN3ZRPpOfIf-11" value="" style="line;strokeWidth=1;fillColor=none;align=left;verticalAlign=middle;spacingTop=-1;spacingLeft=3;spacingRight=3;rotatable=0;labelPosition=right;points=[];portConstraint=eastwest;" vertex="1" parent="1_JYMFFjYfN3ZRPpOfIf-9">
          <mxGeometry y="120" width="240" height="8" as="geometry" />
        </mxCell>
        <mxCell id="1_JYMFFjYfN3ZRPpOfIf-12" value="+ Query(eventID: int, startNode: node)&#xa;+ update(): boolean&#xa;- followPath()&#xa;- returnToStart()&#xa;- reInit()&#xa;- printInfo()&#xa;- hasPosition(): boolean&#xa;- pathCheck()&#xa;&#xa;&#xa;" style="text;strokeColor=none;fillColor=none;align=left;verticalAlign=top;spacingLeft=4;spacingRight=4;overflow=hidden;rotatable=0;points=[[0,0.5],[1,0.5]];portConstraint=eastwest;" vertex="1" parent="1_JYMFFjYfN3ZRPpOfIf-9">
          <mxGeometry y="128" width="240" height="122" as="geometry" />
        </mxCell>
      </root>
    </mxGraphModel>
  </diagram>
</mxfile>
